<svg id="Capa_1" enable-background="new 0 0 502 502" height="512" viewBox="0 0 502 502" width="512" xmlns="http://www.w3.org/2000/svg" xmlns:xlink="http://www.w3.org/1999/xlink"><linearGradient id="SVGID_1_" gradientUnits="userSpaceOnUse" x1="251" x2="251" y1="318.813" y2="0"><stop offset=".0223" stop-color="#c1bfc5"/><stop offset="1" stop-color="#8d889d"/></linearGradient><linearGradient id="lg1"><stop offset="0" stop-color="#78c5e6"/><stop offset=".9788" stop-color="#bbe3f4"/></linearGradient><linearGradient id="SVGID_2_" gradientUnits="userSpaceOnUse" x1="81.109" x2="200.959" xlink:href="#lg1" y1="320.958" y2="320.958"/><linearGradient id="SVGID_3_" gradientUnits="userSpaceOnUse" x1="289.132" x2="408.982" xlink:href="#lg1" y1="320.958" y2="320.958"/><linearGradient id="SVGID_4_" gradientUnits="userSpaceOnUse" x1="159.117" x2="278.967" xlink:href="#lg1" y1="442.075" y2="442.075"/><g><path d="m410.608 318.813c44.613 0 80.779-36.166 80.779-80.779 0-36.216-23.834-66.863-56.671-77.118 2.766-10.471 4.246-21.464 4.246-32.803 0-70.755-57.358-128.113-128.113-128.113-46.719 0-87.591 25.011-109.973 62.37-9.868-4.295-20.753-6.691-32.202-6.691-44.613 0-80.779 36.166-80.779 80.779 0 5.236.516 10.35 1.468 15.309-43.912 2.513-78.75 38.906-78.75 83.448 0 46.17 37.428 83.598 83.598 83.598z" fill="url(#SVGID_1_)"/><g><path d="m376.75 69.783c-5.239-6.025-11.211-11.398-17.751-15.969-4.475-3.129-5.566-9.294-2.437-13.768 3.127-4.475 9.291-5.567 13.769-2.438 7.862 5.497 15.042 11.956 21.341 19.198 3.583 4.121 3.148 10.365-.972 13.949-4.146 3.606-10.389 3.121-13.95-.972z" fill="#c7c5cb"/></g><g><path d="m331.312 41.934c-3.428-.812-6.944-1.425-10.452-1.822-5.426-.614-9.327-5.51-8.713-10.936.613-5.426 5.515-9.332 10.936-8.713 4.291.485 8.593 1.235 12.787 2.228 5.314 1.259 8.601 6.586 7.342 11.9-1.255 5.3-6.573 8.605-11.9 7.343z" fill="#c7c5cb"/></g><g><ellipse cx="155.563" cy="186.856" fill="#fd75be" rx="19.246" ry="15.467"/><ellipse cx="382.053" cy="186.856" fill="#fd75be" rx="19.246" ry="15.467"/><circle cx="188.559" cy="148.741" fill="#d6d5d8" r="38.116"/><path d="m150.443 150.607c.998 20.187 17.68 36.249 38.116 36.249s37.118-16.062 38.116-36.249z" fill="#fff"/><path d="m165.899 150.607c.973 11.665 10.743 20.831 22.66 20.831s21.686-9.166 22.66-20.831z" fill="#383842"/><circle cx="349.057" cy="148.741" fill="#d6d5d8" r="38.116"/><path d="m310.941 150.607c.998 20.187 17.68 36.249 38.116 36.249 20.435 0 37.118-16.062 38.116-36.249z" fill="#fff"/><g fill="#383842"><path d="m326.397 150.607c.973 11.665 10.743 20.831 22.66 20.831s21.687-9.166 22.66-20.831z"/><path d="m283.465 189.132c-1.824 0-3.653-.662-5.098-2-5.717-5.303-13.402-5.303-19.119 0-3.038 2.815-7.782 2.637-10.6-.4-2.816-3.038-2.637-7.783.4-10.6 11.449-10.615 28.068-10.615 39.518 0 3.037 2.816 3.217 7.562.4 10.6-1.477 1.593-3.487 2.4-5.501 2.4z"/></g></g><path d="m150.003 251.469c-3.265-10.017-14.031-15.5-24.049-12.237-16.957 5.523-33.95 14.605-48.513 29.168-11.616 11.616-19.343 25.614-23.157 40.279 11.864 6.462 25.466 10.135 39.927 10.135l50.697-47.505c5.405-5.065 7.391-12.799 5.095-19.84z" fill="#938ea3"/><path d="m316.556 288.924c-.667-4.797-2.881-9.245-6.306-12.669-9.572-9.572-25.469-8.5-33.538 2.37-9.091 12.247-14.442 25.851-16.389 40.188h60.392z" fill="#938ea3"/><path d="m178.308 261.033c-21.868.046-56.037 4.485-79.892 28.34-21.979 21.979-23.187 56.408-2.696 76.898 20.49 20.49 54.919 19.283 76.898-2.696 23.855-23.855 28.294-58.023 28.34-79.892.027-12.551-10.098-22.676-22.65-22.65z" fill="url(#SVGID_2_)"/><path d="m386.332 261.033c-21.868.046-56.037 4.485-79.892 28.34-21.979 21.979-23.187 56.408-2.696 76.898 20.49 20.49 54.919 19.283 76.898-2.696 23.855-23.855 28.294-58.023 28.34-79.892.026-12.551-10.099-22.676-22.65-22.65z" fill="url(#SVGID_3_)"/><path d="m256.316 382.15c-21.869.046-56.037 4.485-79.892 28.34-21.979 21.979-23.187 56.408-2.696 76.898 20.49 20.49 54.919 19.283 76.898-2.696 23.855-23.855 28.294-58.023 28.34-79.892.027-12.551-10.098-22.676-22.65-22.65z" fill="url(#SVGID_4_)"/><g><path d="m226.129 468.189c-4.181-3.513-4.723-9.749-1.21-13.93 2.231-2.655 4.26-5.742 6.03-9.175 2.503-4.854 8.466-6.757 13.319-4.255 4.853 2.504 6.758 8.467 4.255 13.32-2.442 4.736-5.29 9.052-8.465 12.83-3.515 4.187-9.754 4.718-13.929 1.21z" fill="#dbeef5"/></g><g><path d="m247.719 427.162c-5.435-.536-9.405-5.376-8.868-10.81.158-1.598.284-3.24.376-4.883.303-5.452 4.98-9.621 10.421-9.323 5.453.303 9.627 4.969 9.323 10.421-.107 1.922-.256 3.85-.441 5.727-.536 5.429-5.374 9.409-10.811 8.868z" fill="#dbeef5"/></g></g></svg>